<svg width="28" height="28" viewBox="0 0 28 28" fill="none" xmlns="http://www.w3.org/2000/svg">
<path d="M4.6665 12.8333H23.3332V25.6666H4.6665V12.8333Z" stroke="#7D7F88" stroke-width="1.75" stroke-linejoin="round"/>
<path d="M16.9168 25.6666V22.1666C16.9168 21.0667 16.9168 20.5167 16.5751 20.175C16.2334 19.8333 15.6834 19.8333 14.5835 19.8333H13.4168C12.3169 19.8333 11.7669 19.8333 11.4252 20.175C11.0835 20.5167 11.0835 21.0667 11.0835 22.1666V25.6666" stroke="#7D7F88" stroke-width="1.75" stroke-linejoin="round"/>
<path d="M2.3335 11.343C2.3335 10.6692 2.64794 10.1291 3.28695 9.91551L12.7521 6.7524C13.7543 6.41744 14.0002 5.86313 14.0002 4.88381C14.0002 4.00044 13.8556 2.2369 15.2416 2.33604C15.5679 2.35939 15.9639 2.66812 16.7557 3.2856L25.0123 9.7238C25.4779 10.0868 25.6668 10.52 25.6668 11.1241C25.6668 12.2245 25.2044 12.8334 24.1324 12.8334H3.67139C2.81163 12.8334 2.3335 12.198 2.3335 11.343Z" stroke="#7D7F88" stroke-width="1.75" stroke-linejoin="round"/>
<path d="M3.5 25.6667H24.5" stroke="#7D7F88" stroke-width="1.75" stroke-linecap="round" stroke-linejoin="round"/>
<path d="M8.1665 17.5H9.33317" stroke="#7D7F88" stroke-width="1.75" stroke-linecap="round"/>
<path d="M19.8332 17.5H18.6665" stroke="#7D7F88" stroke-width="1.75" stroke-linecap="round"/>
<path d="M5.8335 8.75V3.5" stroke="#7D7F88" stroke-width="1.75" stroke-linecap="round" stroke-linejoin="round"/>
</svg>
