<svg width="28" height="28" viewBox="0 0 28 28" fill="none" xmlns="http://www.w3.org/2000/svg">
<path d="M12.1889 3.48084L5.77224 6.1826C4.38771 6.76556 3.69545 7.05704 3.30597 7.64361C2.9165 8.23019 2.9165 8.98131 2.9165 10.4836V25.0834H6.4165V13.4167C6.4165 12.3168 6.4165 11.7668 6.75821 11.4251C7.09993 11.0834 7.64989 11.0834 8.74984 11.0834H19.2498C20.3498 11.0834 20.8997 11.0834 21.2415 11.4251C21.5832 11.7668 21.5832 12.3168 21.5832 13.4167V25.0834H25.0832V10.4836C25.0832 8.98131 25.0832 8.23019 24.6937 7.64361C24.3042 7.05704 23.612 6.76556 22.2274 6.1826L15.8107 3.48084C14.9177 3.10478 14.4711 2.91675 13.9998 2.91675C13.5286 2.91675 13.082 3.10478 12.1889 3.48084Z" stroke="#7359F1" stroke-width="1.75" stroke-linecap="round" stroke-linejoin="round"/>
<path d="M12.8335 7.58325H15.1668" stroke="#7359F1" stroke-width="1.75" stroke-linecap="round" stroke-linejoin="round"/>
<path d="M15.1667 18.0833H12.8333C11.7334 18.0833 11.1834 18.0833 10.8417 18.425C10.5 18.7667 10.5 19.3167 10.5 20.4166V22.7499C10.5 23.8499 10.5 24.3998 10.8417 24.7415C11.1834 25.0833 11.7334 25.0833 12.8333 25.0833H15.1667C16.2666 25.0833 16.8166 25.0833 17.1583 24.7415C17.5 24.3998 17.5 23.8499 17.5 22.7499V20.4166C17.5 19.3167 17.5 18.7667 17.1583 18.425C16.8166 18.0833 16.2666 18.0833 15.1667 18.0833Z" stroke="#7359F1" stroke-width="1.75" stroke-linecap="round" stroke-linejoin="round"/>
</svg>
